<mxfile host="app.diagrams.net" agent="Mozilla/5.0 (X11; Linux x86_64) AppleWebKit/537.36 (KHTML, like Gecko) Chrome/128.0.0.0 Safari/537.36" version="24.7.14">
  <diagram name="Página-1" id="Pouexw9Fk_nc3GA-1pOM">
    <mxGraphModel dx="1862" dy="598" grid="1" gridSize="10" guides="1" tooltips="1" connect="1" arrows="1" fold="1" page="1" pageScale="1" pageWidth="827" pageHeight="1169" math="0" shadow="0">
      <root>
        <mxCell id="0" />
        <mxCell id="1" parent="0" />
        <mxCell id="29kw8gtN5jwibqQgPTOf-7" value="Departamento" style="whiteSpace=wrap;html=1;align=center;" vertex="1" parent="1">
          <mxGeometry x="310" y="70" width="100" height="40" as="geometry" />
        </mxCell>
        <mxCell id="29kw8gtN5jwibqQgPTOf-13" value="(n..n)" style="edgeStyle=orthogonalEdgeStyle;rounded=0;orthogonalLoop=1;jettySize=auto;html=1;entryX=0.5;entryY=0;entryDx=0;entryDy=0;endArrow=none;endFill=0;" edge="1" parent="1" source="29kw8gtN5jwibqQgPTOf-8" target="29kw8gtN5jwibqQgPTOf-12">
          <mxGeometry x="-0.7143" y="20" relative="1" as="geometry">
            <mxPoint y="1" as="offset" />
          </mxGeometry>
        </mxCell>
        <mxCell id="29kw8gtN5jwibqQgPTOf-8" value="Funcionário" style="whiteSpace=wrap;html=1;align=center;" vertex="1" parent="1">
          <mxGeometry x="60" y="70" width="100" height="40" as="geometry" />
        </mxCell>
        <mxCell id="29kw8gtN5jwibqQgPTOf-14" value="(n..n)" style="edgeStyle=orthogonalEdgeStyle;rounded=0;orthogonalLoop=1;jettySize=auto;html=1;entryX=0.5;entryY=1;entryDx=0;entryDy=0;endArrow=none;endFill=0;startArrow=none;startFill=0;" edge="1" parent="1" source="29kw8gtN5jwibqQgPTOf-9" target="29kw8gtN5jwibqQgPTOf-12">
          <mxGeometry x="-0.6667" y="-20" relative="1" as="geometry">
            <mxPoint y="-1" as="offset" />
          </mxGeometry>
        </mxCell>
        <mxCell id="29kw8gtN5jwibqQgPTOf-9" value="Projeto" style="whiteSpace=wrap;html=1;align=center;" vertex="1" parent="1">
          <mxGeometry x="60" y="300" width="100" height="40" as="geometry" />
        </mxCell>
        <mxCell id="29kw8gtN5jwibqQgPTOf-11" value="" style="rounded=0;whiteSpace=wrap;html=1;" vertex="1" parent="1">
          <mxGeometry x="300" y="220" width="120" height="60" as="geometry" />
        </mxCell>
        <mxCell id="29kw8gtN5jwibqQgPTOf-10" value="Dependente" style="whiteSpace=wrap;html=1;align=center;" vertex="1" parent="1">
          <mxGeometry x="310" y="230" width="100" height="40" as="geometry" />
        </mxCell>
        <mxCell id="29kw8gtN5jwibqQgPTOf-16" style="edgeStyle=orthogonalEdgeStyle;rounded=0;orthogonalLoop=1;jettySize=auto;html=1;entryX=1;entryY=0.5;entryDx=0;entryDy=0;endArrow=none;endFill=0;" edge="1" parent="1" source="29kw8gtN5jwibqQgPTOf-12" target="29kw8gtN5jwibqQgPTOf-15">
          <mxGeometry relative="1" as="geometry" />
        </mxCell>
        <mxCell id="29kw8gtN5jwibqQgPTOf-19" style="edgeStyle=orthogonalEdgeStyle;rounded=0;orthogonalLoop=1;jettySize=auto;html=1;entryX=1;entryY=0.5;entryDx=0;entryDy=0;endArrow=none;endFill=0;" edge="1" parent="1" source="29kw8gtN5jwibqQgPTOf-12" target="29kw8gtN5jwibqQgPTOf-18">
          <mxGeometry relative="1" as="geometry" />
        </mxCell>
        <mxCell id="29kw8gtN5jwibqQgPTOf-21" style="edgeStyle=orthogonalEdgeStyle;rounded=0;orthogonalLoop=1;jettySize=auto;html=1;entryX=1;entryY=0.5;entryDx=0;entryDy=0;endArrow=none;endFill=0;" edge="1" parent="1" source="29kw8gtN5jwibqQgPTOf-12" target="29kw8gtN5jwibqQgPTOf-20">
          <mxGeometry relative="1" as="geometry" />
        </mxCell>
        <mxCell id="29kw8gtN5jwibqQgPTOf-12" value="trabalhar" style="shape=rhombus;perimeter=rhombusPerimeter;whiteSpace=wrap;html=1;align=center;" vertex="1" parent="1">
          <mxGeometry x="50" y="180" width="120" height="60" as="geometry" />
        </mxCell>
        <mxCell id="29kw8gtN5jwibqQgPTOf-15" value="horas trabalhadas" style="ellipse;whiteSpace=wrap;html=1;align=center;" vertex="1" parent="1">
          <mxGeometry x="-120" y="190" width="100" height="40" as="geometry" />
        </mxCell>
        <mxCell id="29kw8gtN5jwibqQgPTOf-18" value="mês" style="ellipse;whiteSpace=wrap;html=1;align=center;" vertex="1" parent="1">
          <mxGeometry x="-120" y="260" width="100" height="40" as="geometry" />
        </mxCell>
        <mxCell id="29kw8gtN5jwibqQgPTOf-20" value="ano" style="ellipse;whiteSpace=wrap;html=1;align=center;" vertex="1" parent="1">
          <mxGeometry x="-120" y="330" width="100" height="40" as="geometry" />
        </mxCell>
      </root>
    </mxGraphModel>
  </diagram>
</mxfile>
